<svg xmlns="http://www.w3.org/2000/svg" viewBox="0 0 147.83 272.38"><defs><style>.a{fill:#cfd8dc;}</style></defs><path class="a" d="M179.11,112.44l0-.07H179Z" transform="translate(-76.8 -38.12)"/><path class="a" d="M96.81,114.83C113.43,116.2,128.3,99.71,120.59,81c-.58-1.41-1.58-2.87-4-2.09.16,3.66-.13,7.29.57,11,1.51,8-8.87,18.92-17.64,19-5.95.09-8.14-2.48-6.28-7.74A45.08,45.08,0,0,0,96,85.11c-.2-11.86,3.56-15.16,16.52-15.26a21.08,21.08,0,0,0,8.51-3.8c6.61-4.5,14-7.1,22-8.75,14-2.88,27-1.46,38.18,7.21,3.48,2.71,6.39,4.75,11.1,4.13,2.75-.35,5.92-.15,6.81,3,1,3.54,2.28,7.06,1.36,10.93a69.48,69.48,0,0,0-2.08,19.76c.17,3.21,1.81,7.59-3.62,8.81a10.12,10.12,0,0,1-11.35-4.77c-2-3.15-3.18-6.39-2.48-10.5,1.08-6.32,2.37-13.23-5.71-18.68,2.87,12.29-.93,24.09,3.84,35.2,4.35-.13,6.21,4.8,10.32,4.61,5.63-.26,6.16,3.22,6.34,6.76a54.21,54.21,0,0,1-4.52,25.82c-.89,1.94-3.77,4.53-.74,6.11,2.61,1.36,4.44-1.67,5.83-3.5a14.13,14.13,0,0,0,2.86-5.81c.8-4.61,1-9.3,1.53-14,.85-7.86-4.7-16.53,3.49-23.46a.77.77,0,0,0,.19-.55c-.73-11.18,2.51-22.26,1.32-33.42-.79-7.45-5.36-10.81-13.56-10.89-1.67,0-3.42.43-4.63-1.18-2.76-3.68-7.88-5.8-8.23-11.13-.16-2.41-2.26-4.08-3.87-5.93C165,33.85,132.1,36.27,122.3,50c-1.31,1.82-2.6,4-1.93,6.05,1.46,4.57-1.35,6.94-4.78,9.1-1.46.92-2.75,1.84-3.06,3.54a31.49,31.49,0,0,0-3.67-1C97.55,66.1,91.52,68.52,90.58,77c-1.06,9.5-3.45,18.87-3.57,28.44C86.93,111.15,90.72,114.33,96.81,114.83ZM142,44.26c2.46-.4,5-1.13,7.17,1a3.64,3.64,0,0,0,4.09.76c8.41-3.36,15-1.26,21.31,7.58-18.71-6.7-36-2.71-53.4,6.7C125.34,50.16,132.51,45.82,142,44.26Z" transform="translate(-76.8 -38.12)"/><path class="a" d="M179.11,112.44l-.08-.07s0,0,0,.07Z" transform="translate(-76.8 -38.12)"/><path class="a" d="M171.19,115.85A44.22,44.22,0,0,1,142.66,121a58.28,58.28,0,0,1-26-10c1.16,2.25,1.51,3.36,2.22,4.22,6.39,7.83,26.41,15.79,41.73,11.54,8.37-2.33,17.11-4.26,18.38-14.32C175.75,112.25,173.65,114.51,171.19,115.85Z" transform="translate(-76.8 -38.12)"/><path class="a" d="M222.59,241.08c-.58-2-.65-4.19-3.25-4.43-2.84-.26-3,2.32-3.85,4-1.14,2.3-1.84,4.84-4.74,7.58,1.3-6.28,2.57-11.37,3.06-16.63a61.72,61.72,0,0,0-.14-15.66c-2-12.2-15.69-20.8-27-15.91-5.63,2.44-5.91-.28-6.32-3.65A44,44,0,0,1,183.26,175c5.51-14.29,4.12-28.48-.85-42.57-.57-1.62-.83-4.05-3.85-3.83-.18.43-.51.82-.45,1.14,2.77,14.85,4.7,29.54-1,44.37-4.57,11.79-4,23.56,1.62,35.43,7.74,16.46,10.76,33.32-.48,49.86-1,1.41-2.26,3.39,0,4.69a4.33,4.33,0,0,0,5.68-1.24,24.32,24.32,0,0,0,5.37-11.2c2.57-14.7,2.32-29.24-3.81-43.32-.62-1.42-2.76-3.42.89-3.9,13.07-1.72,22.43,5.38,22.31,15.28-.08,6.47.1,12.9-1.24,19.33-4.48,21.55-23.07,44.13-51.42,44.72a35,35,0,0,1-17.71,0,79.19,79.19,0,0,1-34.62-10.87c-6.42-3.7-12.17-8.58-15.54-15.22-7.65-15.06-3.71-29,5.12-42.31a10.84,10.84,0,0,1,9.44-5.15c3.17.06,4.31.89,2.87,3.89-1.81,3.76-3.11,7.72-4.93,11.47-4.25,8.78-3.69,18-3.08,27.22.16,2.56,1.27,6.37,5,5.62s1.76-3.92,1.42-6.43a54.5,54.5,0,0,1-.81-9.18c.3-9.49,4.63-17.86,8.16-26.33,6.65-16,6.76-31.51.45-47.54-5.41-13.77-8.9-27.88-1.53-42.2,1-2,1.71-4.18,2.55-6.28-8,6.93-13.86,14.75-13.06,25.89-6.87-8.59-3.92-17.4-2.13-26.74-8.86,7.72-9.29,23.33-1.35,31.09a18.44,18.44,0,0,1,4.83,8c1.37,4.31,2.95,8.58,4.68,12.78a56.52,56.52,0,0,1,3,32.92c-.29,1.5-.62,3-2.65,2.31-12.27-4.26-17.73,3-22.18,11.34-9.85,18.42-10.33,34.12,4.09,49.73,9.07,9.83,21.39,15.22,34.49,19.06,2.19.64,3.54,1.18,4.51,3.36,6.1,13.64,17.75,20.79,33.31,20.28,21-.7,38.46-8,51.69-24.41C223.26,272.08,227.57,257.82,222.59,241.08Zm-2.89,18.07c-6.74,26.3-32.18,49.3-65.75,45.62-10.16-1.12-16.07-7.54-22.55-15.15,12.66-.84,23.88.6,35.11-1.15a47.24,47.24,0,0,0,28.56-15.1c7.78-8.58,18.61-14.86,22.91-27C221.19,251.16,220.62,255.53,219.7,259.15Z" transform="translate(-76.8 -38.12)"/></svg>