<svg xmlns="http://www.w3.org/2000/svg" viewBox="0 0 202.2 252.78"><defs><style>.a{fill:#829bf2;}</style></defs><path class="a" d="M138.65,301c-2.65-.24-5.78-.24-7.63-2.38-2.29-2.65-4.1-2.54-7.08-.2,3.59-7-.17-16.24,7.44-21.75a1.79,1.79,0,0,0,.52-1.32c-.19-4.71,1.82-9.29,2-13.61.2-6.9-2.53-13.81-6.85-19.63a3,3,0,0,0-3.87-1.15,2.79,2.79,0,0,0-1.64,3.6c.15.64,1.65,1.73-.44,1.83-3.73.18-3.08,2.89-3.08,5.25,0,6.07,3.18,11.42,3.48,17.57.49,10.25-4,19.32-5.56,29-.09.52-.52,1.69-1.07,1.22-3.28-2.86-2.71,1.39-4,2.25-1.29-1.86-1.63-5.17-4.67-3.93-2.2.89-6.21.31-5.59,4.82.2,1.45-.2,3.3,1.52,3.77,2.11.59,2.6-1.35,3.18-2.86.44-1.13.45-2.53,2-3.13.72,1.68,1.39,3.33,2.13,4.95.6,1.3,1.9,2,2.49.48,2.36-5.93,3.36-1.76,4.66.5.42.74,1.19,1.77,1.78,1.37,3.52-2.34,5.82.08,8.42,1.76a2.39,2.39,0,0,0,2.3-.15c1.63-1.82,3.3-1.14,5.26-.79a50.62,50.62,0,0,0,8.54.46c.81,0,2.08.18,2.31-1.19C145.67,304.82,141.89,301.28,138.65,301Z" transform="translate(-53.06 -60.76)"/><path class="a" d="M95.87,303.69c-4.68,2.41-3.33-2-4.05-3.65-1.43-3.33-3-3.1-4.74-.43-.77,1.21-1.81,1.94-2.65,1-1.54-1.73-3.66-3.87-3.66-5.84,0-4.91-2.78-4.2-4.88-2.53-3.65,2.91-3.06-1.89-4.93-2.32-1.72-.4-1.28-2.95-.22-3.63,6.37-4.12,8.24-14.12,18-13.81.84,0,1.68-.25,1.86-1.23.24-1.31-1-1.5-1.71-2-1.17-.82-2.52-.58-3.8-.58-4.82,0-20.35,12.1-20.45,16.8-.15,6.59.71,13.21-.22,19.82a1.94,1.94,0,0,0,1.54,2.19c1.13.28,1.76-.61,2.36-1.38,1.11-1.4.7-3.77,2.79-4.67,2,4.16,2.09,3.82,6.91,4.54,3.71.56,9.18.25,10.78,1.66,4.1,3.62,6.28,1.28,10.21-1.08C96.59,306.06,96.09,303.57,95.87,303.69Z" transform="translate(-53.06 -60.76)"/><path class="a" d="M165.91,131.53c2.24-.39,3.78-1.34,4.41-3.81A34.76,34.76,0,0,0,171.2,117c.08-4.77,0-9.25-4.09-13.21-6.24-6.11-12-8-19-4.59-1,.5-3.63.21-2.79,2.41.55,1.44,1.61,3.3,3.88,3a9.91,9.91,0,0,1,8,2.75,3.57,3.57,0,0,0,2.65.93c3.92-1,4.27,1.5,4.61,4.29.7,5.7,1.37,11.38-.31,17C163.76,131.07,164.27,131.81,165.91,131.53Z" transform="translate(-53.06 -60.76)"/><path class="a" d="M130.63,159.91c-1.56-.07-1.39,1.51-1.6,2.57-.9,4.6-5.34,5.89-8.32,8.39-1.36,1.14-3.73-1.06-5.4-2.23-.79-.55-1.52-.8-2.14-.09-1,1.22.23,1.75,1,2.13,3.74,1.91,7.39,4.28,11.38,5.39,3.54,1,7.78,2.35,10.13-3.22.54-1.28,3.86-5.13,7.55-2.27.65.51,1.82-.34,2.43-1.19,1-1.3,1.81-2.69,3.47-3.43,1,1.18.46,3.77,3.18,3.36,3.31-.5,5.79-4.87,6.39-12.22-1.44,2.75-2.56,4.9-3.69,7-.52,1-.92,2.44-2.29,2.13-1.81-.41-1.1-2.09-1-3.24.17-1.5,1.53-3.19-.85-4.05a3.71,3.71,0,0,0-4.76,1.42c-2.5,4.11-6.79,5.9-11.4,9.27.73-3.56-2.71-4.42-2.78-7.07C131.91,161.52,132.24,160,130.63,159.91Z" transform="translate(-53.06 -60.76)"/><path class="a" d="M125.91,92.2c.56-1.23-.27-2.24-1.26-2.9A25.52,25.52,0,0,1,121.19,86c-2-1.93-4.13-4.24-7.32-1.49-.85.73-2.39,1.41-3.51.1-1.65-1.92-1.62-2-3.12-1.09C101,87.23,98.31,94.16,93.23,99c-1,.93.08,1.78.58,2.56,1,1.58,1.88.47,2.77-.19,7.82-5.84,15.85-11,25.87-7.92C124.1,93.43,125.38,93.36,125.91,92.2Zm-18-6.61h0c.13,0,.26.12.38.18C108.21,85.71,108.08,85.64,108,85.59Z" transform="translate(-53.06 -60.76)"/><path class="a" d="M105.84,112.84c.14,4.11,2.68,9,7.24,8.66,3.56.12,6.93-3.53,7.14-7.72.27-5.17-2.75-8.74-7.51-8.87C109.2,104.81,105.7,108.58,105.84,112.84Z" transform="translate(-53.06 -60.76)"/><path class="a" d="M142.73,112.74c-3.24-.19-5.35,2.9-5.61,8.69.5,2.72-.21,6.77,4.69,7.17,4.49.37,7.65-2.15,7.86-5.95S145.76,112.92,142.73,112.74Z" transform="translate(-53.06 -60.76)"/><path class="a" d="M147,199c-1.73.7-1.32,4-3.47,3.52-2.38-.57-2.09-3.34-2.65-5.29-.32-1.14.52-2.63-1.05-3.48-1.76,1.56-1.37,3.91-2.29,5.78-2.13-1-2.31-3-2.88-4.85-.36-1.19-.47-2.88-2.34-2.44s-1.18,2-1.29,3.27c-.29,3.07,2.16,5,3.28,7.47s2.92,5.59,6.29,4.71C145.92,206.28,147.29,204,147,199Z" transform="translate(-53.06 -60.76)"/><path class="a" d="M173.47,202c-.52-.95-1.22-2.22-2.54-1.88s-1.85,1.7-1.88,4.25c2.25,4.69,4.88,10.35,7.73,15.9.55,1.07,1.77.29,2.45-.46a4.53,4.53,0,0,0,.79-5.39C177.92,210.24,175.71,206.11,173.47,202Z" transform="translate(-53.06 -60.76)"/><path class="a" d="M110.11,189.39c-1.36.54-2.51,1.18-1.78,3.16.89,2.42,1.2,5.11,2.4,7.34a22.6,22.6,0,0,0,6.28,7.88c1.7,1.25,3.11.42,4.44-.51a1.15,1.15,0,0,0,0-2c-5.73-3.17-7.26-9.14-9.7-14.48C111.36,190,111.34,189.15,110.11,189.39Z" transform="translate(-53.06 -60.76)"/><path class="a" d="M104.23,233.16c.31-5.36.65-10.76-.19-16.11-.17-1.15-.55-2.76-2.44-2.34-1.57.35-1.9,1.58-1.89,3,0,2.45,0,4.9,0,7.34H99.6c0,2.61-.06,5.23,0,7.84,0,1.22-.23,2.94,1.63,3A2.9,2.9,0,0,0,104.23,233.16Z" transform="translate(-53.06 -60.76)"/><path class="a" d="M174.84,229.62c-2.62-.34-3.65,1.24-3.11,3.47a14.13,14.13,0,0,0,6.38,8.84c3.29,2.06,3.82-.38,4.67-2.17C182.85,237.29,176.93,229.88,174.84,229.62Z" transform="translate(-53.06 -60.76)"/><path class="a" d="M101.74,187.63c-.39-1.88,0-5.26-1.89-5-2.55.3-.56,3.58-1.07,4.77a21.51,21.51,0,0,0,1.06,9.75c1,2.91,2.34,5.67,5.47,7a1.74,1.74,0,0,0,2.17-.28c.85-.83.21-1.39-.37-2C103.29,197.89,102.78,192.65,101.74,187.63Z" transform="translate(-53.06 -60.76)"/><path class="a" d="M148,189.58c-1,.17-1.08,1-1.16,1.88-.28,2.83,4.67,11.74,7.11,12.87a2.08,2.08,0,0,0,3.15-1.16c-.12-.29-.16-.7-.38-.84-4.08-2.72-5.3-7.21-7-11.37C149.34,190.15,149,189.41,148,189.58Z" transform="translate(-53.06 -60.76)"/><path class="a" d="M115,240.15c.66,1.59,1.9,2.92,3.8,1.88s1.9-3.11.58-4.52-1.82-3.31-2.38-5.16c-.34-1.1-.49-2.93-2.2-2.75-2.25.25-1.11,2.27-1.45,3.38A16.35,16.35,0,0,0,115,240.15Z" transform="translate(-53.06 -60.76)"/><path class="a" d="M107.16,224.94a2.11,2.11,0,0,0-1.34,1.16,20.48,20.48,0,0,0-.43,3.34,16.76,16.76,0,0,0,1.65,7.49,2.76,2.76,0,0,0,3.25,1.46c.79-.15,1.68-1.11,1.28-1.78-1.95-3.27-1.65-7.16-3.11-10.55C108.2,225.45,107.9,224.74,107.16,224.94Z" transform="translate(-53.06 -60.76)"/><path class="a" d="M195.53,266.45c.91-.64.93-1.33.48-2.46-2.1-5.25-4-10.57-6-15.87-1.1,2.89,1.79,16.25,3.83,18.08A1.23,1.23,0,0,0,195.53,266.45Z" transform="translate(-53.06 -60.76)"/><path class="a" d="M196.76,100.73l.05,0h0l-.06,0h0v0h.06Z" transform="translate(-53.06 -60.76)"/><path class="a" d="M166.07,179.42c-1.42,0-1.59.73-1.58,1.61,0,2.68,4.81,6.55,7.31,5.87,1.25-.35,2.08-2.27,1.7-2.33C170,184,168,181.58,166.07,179.42Z" transform="translate(-53.06 -60.76)"/><path class="a" d="M192.32,110.19c1.54,4.55,3.41,3,5.42.43.06,1.63,1,2.59,2.62,3.56.74-3.91.72-7.16-2.23-10a3.73,3.73,0,0,1-1.38-3.45c-1,0-3.15-2.12-2.22,1.23.72,2.58,1.63,5.1,2.46,7.65h0c-2.27.4-2.32-1.81-3.38-2.84-1.38-1.34-3.06-3.16-4.85-2.37-2,.9,1.22,2.63.21,4.14C190.74,107.74,191.84,108.76,192.32,110.19Z" transform="translate(-53.06 -60.76)"/><path class="a" d="M189,108.57l-.05,0v0h0S189,108.58,189,108.57Z" transform="translate(-53.06 -60.76)"/><path class="a" d="M159,184.81c-2.41,4-1.17,6.26,1.18,8.12s3.24-.31,5-2.48C161.31,190.37,159.21,189,159,184.81Z" transform="translate(-53.06 -60.76)"/><path class="a" d="M134.79,95.72A13.2,13.2,0,0,0,132,89C129.73,95.17,129.73,95.17,134.79,95.72Z" transform="translate(-53.06 -60.76)"/><path class="a" d="M174,173.72c-1.19-.63-1.63.57-1.7,1.62-.14,2,.31,3.63,2.67,3.87,1,.1,2,0,2.13-1.63A6.31,6.31,0,0,0,174,173.72Z" transform="translate(-53.06 -60.76)"/><path class="a" d="M85.88,117.45h0l.12-.12-.15.09h0v0Z" transform="translate(-53.06 -60.76)"/><path class="a" d="M199.74,175.24c4.21,1.14,6.7-.11,6.71-4.82h0c6.54-1.65,8.5-6.17,7.85-12.4a7.18,7.18,0,0,1,.24-2.43c2.82-11.68,2.52-23.21-.06-35C212,109,205.64,99.66,199.71,89.94c-2.11-2.07-4.38-4.45-7.3-4.55-4.59-.16-7-2.91-9.46-6s-5.73-5.48-10-4.72a8.59,8.59,0,0,1-6.41-1.18c-4-2.45-8.14-4.74-12.1-7.28a11.24,11.24,0,0,0-8.86-1.66,6.77,6.77,0,0,1-5.38-1c-3.84-2.1-7.8-3.25-11.86-.08a4.94,4.94,0,0,1-6,.49c-6.58-4.54-14.51-3.71-20.19-.88-6.58,3.29-13.58,4.65-20.08,7.74-.62-2.19-1-4,1.61-5,.92-.34,2.45-.71,1.75-2.35s-2.31-1.45-3.35-.87A60.34,60.34,0,0,0,68.12,73c-1.07,1.09-1.2,2.85.13,3.38,4,1.59,1.65,3.28.42,5.13-1.53,2.28-3.35,4.46-4.34,7Q59,102,54.13,115.76c-1.08,3.06-1.83,6.9.23,9.34,1.78,2.11,1.79,3.5,1.42,5.85-.42,2.64-1.56,6.29.64,7.92,2.93,2.19,2.83,4.69,3.08,7.58.43,4.92,3.64,7.13,7.61,4.59,3.52-2.25,7.38-1.88,11-3,.71-.23,2.1-1.71,2.81.08.44,1.11-.39,2-1,3-2.54,4.58-6.65,7.91-9.37,12.32a32.88,32.88,0,0,0-5.37,17.85c0,2.28,1.42,3.16,3,3.95,1.33.67,2.11-.64,2.89-1.32,2.21-1.94-.93-2.08-1.09-3-.45-2.65-.53-5.53.77-7.93.68-1.27,2.78-.91,4.11-.55,1.77.47.65,2,.33,2.82-2.59,7-2.68,14.1-2.11,21.49.65,8.28.1,16.64.15,25,0,1.25-.54,2.94.74,3.67,5.39,3.08,3.88,8.83,5.15,13.39,1.71,6.12.09,13.11,4.83,18.47h0a.5.5,0,0,0,.26.55l.65.84a47.06,47.06,0,0,0,2.51,5.76c.77,1.29,1.89,3.35,3.64,2.47a3.43,3.43,0,0,0,1.19-5.12c-4-5.34-4.16-11.59-5.17-17.77-.37-2.31.51-6.54-4.17-6.57h0c-2.48-1.71-2.84-3.61,0-5.14,1.15-.63,2-.88,1.54-2.39-1.22-4.16-.27-8.45-.69-12.67-.11-1.11.31-2.86-.91-3-4.19-.59-2.55-3.16-2.2-5.42a48.17,48.17,0,0,0,1-8.23c0-1.48.68-3.43-.85-4.6-2-1.51-2.75,1.83-5,1.21,1.39-5.64,5.24-10.17,6.71-15.71.63-2.39,1.22-5.11,3.14-7,.9-.91,1.65-1.84.56-2.88-1.29-1.23-2.21,0-3.25.75-2.71,1.91-2.71,5.8-5.71,7.9-.94-5,2.4-8.81,3-12.86-1.52-1.35-2.89,1.26-3.76-.33-.61-1.12.14-2.35,1.13-3.39,2.14-2.25,4.14-4.67,4.31-8C82,154,82.85,154,84.21,154c3.77.06,2.34,2.59,2.4,4.52.08,2.61-.68,6.31,4,4.91,6.09-1.84,6.12-2,7.11,4.61a13.57,13.57,0,0,0,.67,3.33c.7,1.64-.67,4.29,2.13,4.9s3.78-1.5,4.63-3.59a32.25,32.25,0,0,0,3.71,3.2,2.41,2.41,0,0,0,3.46-.67c.57-.77,1.59-2,.65-2.53-5.09-2.86-5-8.21-6.5-12.79-.38-1.15-1-2.22-2.37-2s-1.62,1.52-1.49,2.68c.36,3.24.84,6.46,1.27,9.69C99,165.08,100.52,157.56,97,152c-2.2.89-1.64,4.6-4.43,3.52-2.56-1-1.66-3.55-1.65-5.6a1.67,1.67,0,0,1,.08-.49c.85-2.9,1.29-5.38-1.6-7.9-1.4-1.22-1.65-4.42,1.91-5,2.07-.36,3.72-1.38,4.24-3.53a2.1,2.1,0,0,1,2.41-1.82c5.61,0,11.23,0,17,0-.26,1.81-1.48,2.76-1.35,4.44.18,2.47,4,4.1,1.81,6.81-2,2.55-4.67-.93-7.12.21-1.36.64-3.49,0-3.87,2.14-.44,2.46,1.93,2.33,3.21,2.73,5.24,1.62,10.66,2.71,15.83,4.51,4,1.39,7.65-.11,11.45-.36a2.11,2.11,0,0,0,1.89-2.86,2.05,2.05,0,0,0-2.69-1.49,19,19,0,0,1-6.78.63c-1.48,0-3.73.5-3.48-2,.19-1.78-.14-4.54,3.38-4,2.5.35,4.3-.61,3.49-3.63-.35-1.3.11-2.66,1-2.84a27,27,0,0,1,5.61,0c-.46,4.47,3.55,2.91,5.52,4.1h0c3.06,3.16,8.6,3.05,10.35,8.14a2.48,2.48,0,0,0,4.33.81c1.71-1.68,2.72-.76,3.28,1.37.71,2.64.66,5.6,2.53,7.8,1.19,1.41,1,2.28,0,3.74-3.43,5.17-5.84,11.17-12.14,13.82A2.34,2.34,0,0,0,150,178.5a2.56,2.56,0,0,0,3.21,1.55c1.23-.35,3-.66,3.48-1.56,2.36-4,7-5.2,9.91-8.44a25.72,25.72,0,0,1,4.7-4.16c.47,0,1.16.2,1.37,0,5.86-6.39,8-14.29,9-22.61a2.25,2.25,0,0,0-2.1-2.77,2.64,2.64,0,0,0-2.94,2.06c-1.23,3.53-2.26,7.14-3.47,10.68-.43,1.24-.71,3.27-2.87,1.56.28-1.27.63-2.4-.42-3.65-2.78-3.34-5-6.44-9.48-8.75-6.34-3.26-12-7.67-19.38-8.57h0a19.52,19.52,0,0,0-2.91-1.7c-10.5-4-21.47-5-32.52-4.35-4.16.24-8.38-.13-12.41-.24-2.85-.08-6.45-2.9-10-3.93a1.63,1.63,0,0,1-.17.2,1.63,1.63,0,0,0,.17-.2l-.74-.8a1.56,1.56,0,0,1-.25.17,1.56,1.56,0,0,0,.25-.17c.54-2.15,3.92-2.51,3.41-5.34-1.08,0-2.07,1.35-3.13.37s0-2.17.42-3.06c1.18-2.63,2.62-5.14,3.93-7.71.57-1.13,1.71-2.63.43-3.5-1.53-1-2.64.71-3.54,1.74-1.57,1.79-2.94,3.77-4.39,5.67-.89,2.6-1.61,5.29-2.73,7.79-1.23,2.75-2.23,5.06-.12,8.12,1.46,2.14-.91,4.92-.62,7.58.31,2.91-1.35,4.38-4,5.68-2,1-3.21,3.55-4.79,5.39-.73.86-1.69,2.14-2.68,1.7a3.62,3.62,0,0,1-2.21-3,122.17,122.17,0,0,0-1.49-13.59c-1.42-7.19.72-15.09,1.3-22.69.1-1.27.34-2.23,1.86-2.3a2.87,2.87,0,0,0,2.77-3c-.09-8.64,5.7-15,8.41-22.57,1-2.86,8.22-6.32,11.1-5.87,2.19.35,1.63,1.61,1.08,2.83-1,2.22-2.15,4.38-3.17,6.59-.4.88-1.19,2.13-.87,2.71,3.31,6.19-3,7.91-5.26,11.41-1.77,2.74-3.54,5.38-4.32,8.6-.58,2.41,1.29,3.48,2.45,4.89,1.31,1.58,1.75-.6,2.67-.82,2.88-7.5,6.57-14.5,12.72-19.9.77-.68,1.44-2.07,2.82-1.29,1.14.65-.28,2,.72,3.08,1.72-3.68,4.17-6.84,5.18-11.09-4.82.27-7.37,4.16-11.26,5.22-.46-1.56,0-2.64.92-4,1.47-2.31,3.49-4.62,1.71-8-1.57-3-.28-4.37,3.15-4.36,1.79,0,5,1.11,5.24-1,.45-3.46,2.86-2.22,4.47-2.9,2.72-1.14,5.85-.36,8.56-2.44,1.3-1,3.87-.29,6,.43,6,2,12.6,2.43,18.21,5.89a2.46,2.46,0,0,0,1.92,0c3.26-1.32,6-.92,8.13,2.08a1.53,1.53,0,0,0,2.54,0c2.72-5.53,5-.77,7.35.26,5.55,2.41,9.92,8.18,17.2,5.64a4.29,4.29,0,0,1,5.07,1.77c-1.86,1.08-4.84,1.75-4.81,3.68,0,2.36,3.26,1.87,5,2.76,1.61.79,3.13,1.93,4.83,2.32,3.11.71,4,4.51,6.75,5,4.31.78,5.47,3.3,5.41,7.08,3.82,1.86,2.49-1.44,2.91-3l0,.06h0A52.29,52.29,0,0,1,210.85,127c.55,7.7.08,15.37.59,23,.15,2.36.52,4.89-1.34,7.07-1.17-1.08-.34-2.38-.55-3.5-.26-1.45.75-3.85-1.5-3.94-1.68-.06-2.05,2.22-2.38,3.78-1,4.73-1.14,9.63-3,14.18m0,0c-3.48,0-1.65-3-2.49-4.53-2.33,1.92-2.6,4.93-3.91,7.39h0l-3.59,3.07c-2.62-4.89-1.2-10-1.8-14.91.13-.08.37-.21.36-.24a4.59,4.59,0,0,0-.35-.66h0c0-.45,0-.9-.08-1.35h0l-.93-.63h0c.29-2.07.74-4.13.83-6.2.08-1.72.64-2.37,2.38-2.94,3.87-1.26,5.52-4.55,5.23-8.37-.36-4.63-.87-9.33-3.48-13.44-3.14-5-4.21-10.67-5.94-16.14-3.72-.17-4.36,1.56-3.41,4.9,2.07,7.24,3.69,14.72,3.19,22.2-.42,6.34-.39,12.69-.76,19a1.81,1.81,0,0,0,.18.27,1.81,1.81,0,0,1-.18-.27c-1.62,1.32-1.67,3.9-4,4.74-.92.34-2.39.42-2.19,2.1s1.56,1.29,2.56,1.28c1.27,0,1.68.46,1.66,1.71-.06,3.31,0,6.63,0,9.94l-1.16.58c-.75-1-1.45-2.13-2.26-3.12a8.52,8.52,0,0,0-5-2.76c-1.53-.34-3.16-.17-3.64,1.24s1.25,1.44,2.21,2c3.89,2.18,6.57,5.73,9,9.27,10.26,15.07,17.2,31.45,18.74,49.84a57.55,57.55,0,0,0,1.17,7.72c.28,1.27,1.3,2.6,2.7,2.42,1.79-.24,1.42-1.64,1.06-3-1.14-4.47,4.64-6.25,3.65-10.73,2,2.34,1.92,4.83,2.5,7.17a2.27,2.27,0,0,1-1.56,3.06c-1.68.56-.19-2.19-1.81-2,0,3.93.12,7.82,0,11.71-.2,5.34,7.08,7,6.05,12.74,0,.05.28.22.42.2,3.76-.58,4.26,2.55,5.27,4.85a4.31,4.31,0,0,0,3.64,2.79c1,.15,1.9.19,2.26,1.41,1.91,6.56,1,13.19,1.4,20.87-1.88-2.09-1.73-4.71-4-3.85a3.59,3.59,0,0,0-2.15,4c.14,1.29,0,2.61.19,3.91s1.42,2.53.3,3.67c-1.37,1.41-2.69-.18-4-.53-3.68-1-7.06-4-11.14-2.25s-8.17,3.89-12.14,6c-2,1.07-3.82,1.8-6.07.94.26-2.19,1.63-3.81,2.75-5.57.68-1.06,1-2.63-.52-2.72-2.76-.17-6.43-2.2-8.17.91-2.83,5.06-5.92-1.44-8.54.73-2.06-2.58-5-5-1.17-8.46,1.64.4,2.42,3.36,4.44,2a6.1,6.1,0,0,0,2.65-5c0-1.63.18-3.26.25-4.89s.4-3.23,2.32-3.83c1.28,1.22.74,4.79,3.25,3.93,2.33-.8.8-3.32.26-5.13a3.15,3.15,0,0,1-.12-1.93c.95-2.18-5.59-5.91,1.39-6.85a2.3,2.3,0,0,0,0-1.29q-2.22-5-4.55-10c-.64-1.36-2-2.34-3.08-1.14-2.79,3.17-6.9,5.47-7.38,10.3l.87,0-.87,0c-1.24-.43-.92-1.52-1.06-2.44-.26-1.59.91-4.14-1.94-4.17s-1.64,2.59-2.07,4.12c-1.51,5.4-.45,11.16-3.45,16.5a39.51,39.51,0,0,0-5.5,17.55c-.07,1.55.88,5.93-3.77,3.91-.23-.1-.92.41-1.12.78-1.59,3-5.15,4.59-5.17,8.58-2.58-1.54-.7-4.3-2.38-5.81-3.12,3.49-2.51,8.34,1.14,10.36,1.16.64,2.46.74,2.94-.55,2-5.3,9.66-4.54,11.09-10.42,0-.16.86-.13,1.35-.18V302h0c2.92,6.33,2.94,6.33,9.5,4.1.89,1.89-1.89,5.14,1.35,5.81,2.39.5,3.48-2.32,4.77-4.07.1-.13.09-.33.19-.45,1.68-2,3.09-1.87,3.65.73.32,1.5.32,3.05,2.18,3.31,2,.3,2.09-1.69,2.85-2.81,1.09-1.6,2-2.29,2.91.13,1.52,4.1,3.21,4.56,5,.15a1.38,1.38,0,0,1,1.93-.93c3.21,1.62,6.85.07,10.06,1.44,1.91.82,4.55.26,4.9-.86,1.11-3.49,3.68-2.33,5.88-2.74,8.14-1.5,16.43-5.39,14.57-15.49a23.55,23.55,0,0,1,.54-11c1.86-5.91.38-10.82-2.94-15.38-1.3-1.78-1.16-2.42.26-3.87a65,65,0,0,0,6.17-6.84c8.16-11.16,9.23-24.95,14.14-37.3a15.36,15.36,0,0,0,1.51-4.83c.61-9.31,1.32-18.38-2.86-27.39-3.62-7.78-4.63-16.45-5.2-25-.11-1.69-.2-3.41-2.26-3.8-1.45-.27-3.25-.4-3.84,1.29-1,2.84-4.12,5.15-1.92,8.89,1,1.69.4,3.9,0,5.9-1.42-.38-1.52-1.27-2-1.92-.77-1.15-1.26-3-3.24-2.06-1.74.82-1.6,2.23-.77,3.72.64,1.13.2,2.19-.29,3.25-2.28,4.94-6.31,9.16-6.2,15.1,0,.55-.58.23-1,.2-2.81-.21-2.85-.16-2.87,2.41,0,3.43.07,6.87,0,10.3,0,.82.45,2.56-.86,2.26-5.58-1.3-3.66,2.83-4,5.27-.92,5.92-2,11.75-7.5,15.88-1.86-7.4-4.79-14.05-6.69-21.09-2.26-8.42-5-16.8-11.71-23.1-.88-.83-1.36-2.79,0-2.49,3.79.84,5.1-3.18,8.13-3.42M80,225.8v0S80,225.78,80,225.8Zm60.87-89.21-.06,0h0ZM150.28,68h0a4.74,4.74,0,0,0-.75-.37h0A4.35,4.35,0,0,1,150.28,68Zm-.81-.35h0ZM199,92.21l-.13-.2Zm31.11,103.9a.4.4,0,0,0-.33-.31h0A.4.4,0,0,1,230.11,196.11Zm-.33-.31c-.61-.1-.74.22-.74.65C229,196,229.17,195.7,229.78,195.8Zm-.71,1.68c0-.32,0-.7,0-1C229,196.78,229.09,197.16,229.07,197.48Zm17.77,16.63c-.15,4.35-3.69,7.39-5,11.45-3.8,11.42-12.16,19.3-22.22,26.67-.4-6.38.62-12-1.12-17.47-.8-2.47-1.47-5-2.35-7.42-1.15-3.15.2-6,2.7-6.77,3.15-1,3.78-3.1,4.46-5.52,1.63-5.85,2.71-11.89,5.74-17.27l.55.46h0c.17,1-.64,2.36-.33,3.21a.94.94,0,0,0,.3.42,1.51,1.51,0,0,0,.54.25c2.11.55,2.55-1.9,2.69-3.3.37-3.56.29-7.17.36-10.76,0-1.88-.32-3.86,1.67-5.38.18,1.73.35,3.31.56,5.29,3.75-2,2.21-5.63,3.22-8.23.56-1.44.76-4.42,2.07-3.55,1.7,1.14,5,.14,5.27,3.75A335.74,335.74,0,0,1,246.84,214.11Z" transform="translate(-53.06 -60.76)"/></svg>