<?xml version="1.0" encoding="utf-8"?>
<!-- Generator: Adobe Illustrator 26.0.1, SVG Export Plug-In . SVG Version: 6.00 Build 0)  -->
<svg version="1.1" id="visual" xmlns="http://www.w3.org/2000/svg" xmlns:xlink="http://www.w3.org/1999/xlink" x="0px" y="0px"
	 viewBox="0 0 540 960" style="enable-background:new 0 0 540 960;" xml:space="preserve">
<style type="text/css">
	.st0{display:none;fill:#FFFFFF;}
	.st1{opacity:0.2;fill:url(#XMLID_00000079474299668522617810000013982866368459452069_);}
	.st2{opacity:0.5;fill:url(#XMLID_00000062903760201215175550000014195130364742605993_);}
	.st3{fill:url(#XMLID_00000139259624460109611710000002771303987028517257_);}
</style>
<rect class="st0" width="540" height="960"/>
<linearGradient id="XMLID_00000159453027179417741190000013240338168736676489_" gradientUnits="userSpaceOnUse" x1="305.9919" y1="701.4409" x2="246.4614" y2="-45.6618">
	<stop  offset="0" style="stop-color:#829BF2"/>
	<stop  offset="0.4774" style="stop-color:#497CD7"/>
	<stop  offset="1" style="stop-color:#0F5DBC"/>
</linearGradient>
<path id="XMLID_23_" style="opacity:0.2;fill:url(#XMLID_00000159453027179417741190000013240338168736676489_);" d="M0,499.1
	c0,0,81.5,90.1,169.9,90.1c88.4,0,135.3-33.9,205.8-33.9c70.4,0,103.6,54.1,164.3,54.1V0.4H0V499.1z"/>
<linearGradient id="XMLID_00000083046521332878633080000007680727550498340281_" gradientUnits="userSpaceOnUse" x1="-134.0334" y1="670.0348" x2="-191.0067" y2="-44.9765" gradientTransform="matrix(-1 0 0 1 101.3333 0)">
	<stop  offset="0" style="stop-color:#829BF2"/>
	<stop  offset="0.4774" style="stop-color:#497CD7"/>
	<stop  offset="1" style="stop-color:#0F5DBC"/>
</linearGradient>
<path id="XMLID_22_" style="opacity:0.5;fill:url(#XMLID_00000083046521332878633080000007680727550498340281_);" d="M540,470.8
	c0,0-98,101.4-186.4,101.4c-88.4,0-118.8-45.2-189.3-45.2S60.8,581,0,581V0h540V470.8z"/>
<linearGradient id="XMLID_00000124861419565963015670000004471410821924192916_" gradientUnits="userSpaceOnUse" x1="304.2219" y1="649.1298" x2="248.9666" y2="-44.3194">
	<stop  offset="0" style="stop-color:#829BF2"/>
	<stop  offset="1" style="stop-color:#598FDA"/>
</linearGradient>
<path id="XMLID_21_" style="fill:url(#XMLID_00000124861419565963015670000004471410821924192916_);" d="M0,439.3
	c0,0,70,102.8,169.9,102.8c88.4,0,135.3-33.9,205.8-33.9s103.6,54.1,164.3,54.1V0H0V439.3z"/>
</svg>
