<?xml version="1.0" encoding="utf-8"?>
<!-- Generator: Adobe Illustrator 26.0.1, SVG Export Plug-In . SVG Version: 6.00 Build 0)  -->
<svg version="1.1" id="visual" xmlns="http://www.w3.org/2000/svg" xmlns:xlink="http://www.w3.org/1999/xlink" x="0px" y="0px"
	 viewBox="0 0 540 960" style="enable-background:new 0 0 540 960;" xml:space="preserve">
<style type="text/css">
	.st0{fill:#FFFFFF;}
	.st1{opacity:0.2;fill:url(#XMLID_00000113345100321802195250000004431447153752321198_);}
	.st2{opacity:0.5;fill:url(#XMLID_00000059283587299108460040000005018205683025720468_);}
	.st3{fill:url(#XMLID_00000158730434954701497680000000107288236057109384_);}
</style>
<rect class="st0" width="540" height="960"/>
<linearGradient id="XMLID_00000156558251498555882860000007553721855269128599_" gradientUnits="userSpaceOnUse" x1="284.4455" y1="208.9111" x2="265.4718" y2="-29.2076">
	<stop  offset="0" style="stop-color:#829BF2"/>
	<stop  offset="0.4774" style="stop-color:#497CD7"/>
	<stop  offset="1" style="stop-color:#0F5DBC"/>
</linearGradient>
<path id="XMLID_23_" style="opacity:0.2;fill:url(#XMLID_00000156558251498555882860000007553721855269128599_);" d="M0,54.9
	c0,0,81.5,90.1,169.9,90.1c88.4,0,135.3-33.9,205.8-33.9c70.4,0,103.6,54.1,164.3,54.1V0.4H0V54.9z"/>
<linearGradient id="XMLID_00000109023968222845689380000012742688915047079844_" gradientUnits="userSpaceOnUse" x1="-155.5797" y1="177.5049" x2="-171.9963" y2="-28.5223" gradientTransform="matrix(-1 0 0 1 101.3333 0)">
	<stop  offset="0" style="stop-color:#829BF2"/>
	<stop  offset="0.4774" style="stop-color:#497CD7"/>
	<stop  offset="1" style="stop-color:#0F5DBC"/>
</linearGradient>
<path id="XMLID_22_" style="opacity:0.5;fill:url(#XMLID_00000109023968222845689380000012742688915047079844_);" d="M540,26.5
	c0,0-81.5,90.1-169.9,90.1c-88.4,0-135.3-33.9-205.8-33.9S60.8,136.8,0,136.8V0h540V26.5z"/>
<linearGradient id="XMLID_00000114061690172490071160000010456222374171035011_" gradientUnits="userSpaceOnUse" x1="280.6815" y1="156.7588" x2="265.983" y2="-27.7063">
	<stop  offset="0" style="stop-color:#829BF2"/>
	<stop  offset="1" style="stop-color:#598FDA"/>
</linearGradient>
<path id="XMLID_21_" style="fill:url(#XMLID_00000114061690172490071160000010456222374171035011_);" d="M0,45.4
	c0,0,81.5,52.4,169.9,52.4c88.4,0,135.3-33.9,205.8-33.9S479.2,118,540,118V0H0V45.4z"/>
</svg>
