<svg xmlns="http://www.w3.org/2000/svg" xmlns:xlink="http://www.w3.org/1999/xlink" viewBox="0 0 370.18 370.18"><defs><style>.a{fill:url(#a);}.b{fill:#fff;}.c{fill:url(#b);}</style><linearGradient id="a" y1="185.09" x2="370.18" y2="185.09" gradientUnits="userSpaceOnUse"><stop offset="0" stop-color="#829bf2"/><stop offset="1" stop-color="#598fda"/></linearGradient><linearGradient id="b" x1="153.19" y1="225.33" x2="191.07" y2="225.33" xlink:href="#a"/></defs><rect class="a" width="370.18" height="370.18" rx="37.07"/><path class="b" d="M236.72,189.47a57,57,0,0,0,18.92-56c-4.57-21.43-22.42-39-43.91-43.29a57,57,0,0,0-48.45,99.33,52.55,52.55,0,0,0-27,45.92V302A37.51,37.51,0,0,0,173.8,339.5h52.4A37.51,37.51,0,0,0,263.72,302v-66.6A52.55,52.55,0,0,0,236.72,189.47Z" transform="translate(-14.91 -14.91)"/><path class="c" d="M182,225.59l7-7a7,7,0,1,0-10-10l-7,7-6.88-6.87a7,7,0,0,0-10,10l6.87,6.88-6.35,6.35a7,7,0,0,0,10,10l6.36-6.35,6.46,6.46a7,7,0,0,0,10-10Z" transform="translate(-14.91 -14.91)"/></svg>